<?xml version="1.0" standalone="no"?>
<!DOCTYPE svg PUBLIC "-//W3C//DTD SVG 20010904//EN"
 "http://www.w3.org/TR/2001/REC-SVG-20010904/DTD/svg10.dtd">
<svg version="1.0" xmlns="http://www.w3.org/2000/svg"
 width="1000.000000pt" height="732.000000pt" viewBox="0 0 1000.000000 732.000000"
 preserveAspectRatio="xMidYMid meet">

<g transform="translate(0.000000,732.000000) scale(0.100000,-0.100000)"
fill="#000000" stroke="none">
<path d="M220 6072 l0 -768 182 -182 182 -182 743 0 743 0 0 -2227 0 -2228
177 -177 178 -178 922 0 923 0 0 2405 0 2405 925 0 925 0 2 770 3 770 -180
180 -180 180 -2773 0 -2772 0 0 -768z m5350 -7 l0 -575 -925 0 -925 0 0 -2405
0 -2405 -725 0 -725 0 0 2405 0 2405 -925 0 -925 0 0 575 0 575 2575 0 2575 0
0 -575z"/>
<path d="M6968 6352 l-798 -487 0 -815 0 -816 182 -181 181 -182 509 305 c279
167 510 304 513 304 3 0 5 -901 5 -2002 l0 -2003 172 -172 173 -173 937 0 938
0 0 3173 0 3173 -182 182 -182 182 -826 0 -825 0 -797 -488z m2262 -2692 l0
-2980 -735 0 -735 0 0 2310 0 2310 -82 0 -83 0 -610 -366 -610 -365 -3 587
c-1 399 1 591 8 598 6 6 331 207 723 448 l712 436 708 1 707 1 0 -2980z"/>
</g>
</svg>
